<?xml version="1.0" encoding="UTF-8"?>
<svg width="789px" height="153px" viewBox="0 0 789 153" version="1.1" xmlns="http://www.w3.org/2000/svg" xmlns:xlink="http://www.w3.org/1999/xlink">
    <title>TaylorMade Logo Black</title>
    <defs>
        <polygon id="path-1" points="0 7.11708917e-05 788.433 7.11708917e-05 788.433 152.194 0 152.194"></polygon>
    </defs>
    <g id="TaylorMade-Logo-Black" stroke="none" stroke-width="1" fill="none" fill-rule="evenodd">
        <g>
            <mask id="mask-2" fill="white">
                <use xlink:href="#path-1"></use>
            </mask>
            <g id="Clip-2"></g>
            <path d="M595.5916,81.431 C596.9226,81.431 599.6236,81.465 601.4426,81.797 C599.8666,89.657 594.2016,95.571 584.8636,95.571 C580.2566,95.571 577.5506,92.538 577.5506,89.842 C577.5506,84.679 585.1616,81.095 595.5916,81.431 L595.5916,81.431 Z M189.7946,81.431 C191.1306,81.431 193.8266,81.465 195.6456,81.797 C194.0706,89.657 188.5266,95.571 179.1896,95.571 C174.5816,95.571 171.7536,92.538 171.7536,89.842 C171.7536,84.679 179.3646,81.095 189.7946,81.431 L189.7946,81.431 Z M667.8766,63.39 C675.1556,63.39 678.2376,69.5 678.2376,75.336 C678.2376,83.079 672.0946,93.621 661.7816,93.621 C654.8676,93.621 651.2986,88.735 651.2986,81.553 C651.2986,72.459 657.5696,63.39 667.8766,63.39 L667.8766,63.39 Z M359.2326,62.049 C367.7206,62.049 370.5686,67.818 370.5686,73.873 C370.5686,87.121 364.1806,94.962 353.9906,94.962 C346.5936,95.074 342.1666,89.774 342.1666,81.919 C342.1666,72.601 348.6806,62.049 359.2326,62.049 L359.2326,62.049 Z M743.5746,61.44 C751.5756,61.44 754.3016,66.613 754.3016,72.898 L727.4846,72.898 C729.0646,67.291 734.1156,61.44 743.5746,61.44 L743.5746,61.44 Z M140.4256,60.099 C139.2446,60.124 138.0736,60.243 136.8906,60.343 C121.7706,61.62 116.0226,71.904 107.7576,85.088 C101.3356,95.327 80.4666,132.077 71.4316,147.987 C82.0076,153.053 91.8816,153.341 102.6376,149.937 C110.0246,147.597 113.7986,145.69 117.9966,142.623 C119.3966,141.599 120.6106,140.532 121.5316,139.21 L121.8976,138.723 C122.0196,138.552 122.1466,138.411 122.2626,138.235 C135.8476,117.055 145.5896,84.708 150.1776,67.291 C150.7286,65.204 151.2556,63.014 151.7626,60.952 C147.6006,60.276 143.9686,60.025 140.4256,60.099 L140.4256,60.099 Z M62.2896,59.611 C60.6036,59.661 58.8776,59.721 56.9256,59.977 C30.9326,63.41 10.7216,70.095 -0.0004,74.239 C0.4926,76.506 1.0186,77.91 1.0966,78.14 C1.1016,78.155 1.2186,78.627 1.2186,78.627 C5.6786,93.547 20.2936,110.783 44.6146,129.825 C45.5306,130.541 46.4186,131.228 47.2966,131.897 C61.6266,110.603 69.4666,94.469 74.9666,77.409 C79.2416,64.136 74.0906,59.259 62.2896,59.611 L62.2896,59.611 Z M221.1216,49.25 L235.0186,107.517 C232.4726,113.471 228.5286,117.147 222.3416,117.147 C218.2166,117.147 215.1346,116.225 212.3456,115.44 L207.7136,130.19 C211.8386,131.419 217.1386,132.628 224.9006,132.628 C238.8506,132.628 246.0186,125.767 252.4496,115.44 L293.8946,49.25 L270.7346,49.25 L249.2806,86.185 L249.0366,86.185 L243.3076,49.25 L221.1216,49.25 Z M743.3306,47.909 C715.1926,47.909 705.5426,68.827 705.5426,82.406 C705.5426,97.112 716.9906,109.102 738.0896,109.102 C744.4036,109.102 752.5126,107.946 760.1536,105.81 L762.9566,91.549 C756.8966,94.24 749.0266,95.571 743.2086,95.571 C729.8636,95.571 726.3876,90.641 726.1436,84.357 L770.8796,84.357 C771.7336,80.88 772.4646,75.746 772.4646,73.386 C772.4646,55.657 759.9476,47.909 743.3306,47.909 L743.3306,47.909 Z M596.9326,47.909 C587.1076,47.909 580.1976,49.299 573.7716,51.322 L571.5776,65.95 C578.8526,62.473 584.1716,61.44 592.0566,61.44 C599.2136,61.44 603.6366,64.722 603.6366,68.875 C603.6366,69.66 603.6366,70.529 603.3926,71.313 C600.3606,71.089 596.0596,70.704 591.6906,70.704 C572.4016,70.704 556.8276,77.794 556.8276,92.158 C556.8276,103.494 564.4536,109.102 578.0376,109.102 C586.5276,109.102 594.6356,106.327 599.2476,99.594 L599.2476,99.35 L599.4916,99.594 L598.5166,107.761 L616.3146,107.761 C618.7416,90.139 624.3596,76.984 624.3596,67.779 C624.3596,53.409 611.9746,47.909 596.9326,47.909 L596.9326,47.909 Z M442.1216,47.909 C433.1456,47.909 426.1346,54.472 422.6186,61.318 L422.3746,61.318 L424.8136,49.25 L404.5776,49.25 C403.9736,54.526 402.9876,59.436 401.8966,64.487 L392.0226,107.761 L413.8416,107.761 L420.0586,80.822 C421.6386,72.177 427.1776,64.731 436.3936,64.731 C440.5186,64.731 443.5996,65.267 446.3886,67.291 L451.3866,49.372 C448.4806,48.25 445.0326,47.909 442.1216,47.909 L442.1216,47.909 Z M360.3286,47.909 C335.5836,47.909 319.4936,61.869 319.4936,82.406 C319.4936,97.112 328.9966,109.102 352.4056,109.102 C376.0586,109.102 393.1196,98.473 393.1196,74.117 C393.1196,59.416 381.7976,47.909 360.3286,47.909 L360.3286,47.909 Z M191.1356,47.909 C181.3106,47.909 174.4056,49.299 167.9746,51.322 L165.7806,65.95 C173.0556,62.473 178.3756,61.44 186.2596,61.44 C193.4126,61.44 197.9616,64.722 197.9616,68.875 C197.9616,69.66 197.9616,70.529 197.7176,71.313 C194.6846,71.089 190.2626,70.704 185.8936,70.704 C166.6096,70.704 151.1536,77.794 151.1536,92.158 C151.1536,103.494 158.6566,109.102 172.2406,109.102 C180.7306,109.102 188.8436,106.327 193.4516,99.594 L193.4516,99.35 L193.6956,99.594 L192.7196,107.761 L210.5166,107.761 C212.9456,90.139 218.5626,76.984 218.5626,67.779 C218.5626,53.409 206.1776,47.909 191.1356,47.909 L191.1356,47.909 Z M778.8036,40.351 L781.1186,40.351 C782.1966,40.351 782.3096,40.985 782.2166,41.449 C782.0266,42.317 781.4656,42.668 780.5096,42.668 L778.3156,42.668 L778.8036,40.351 Z M777.3406,38.767 L775.5126,47.543 L777.3406,47.543 L778.0716,44.13 L779.9006,44.13 C781.2656,44.13 781.2456,44.633 780.9976,45.837 C780.8076,46.744 780.8416,47.124 780.8756,47.543 L782.8256,47.543 L782.9476,47.3 C782.5966,47.154 782.5526,46.88 782.8256,45.593 C783.1816,43.955 782.8746,43.706 782.2166,43.399 C783.1526,43.101 783.8396,42.292 784.0446,41.327 C784.2056,40.566 784.1866,38.767 781.8506,38.767 L777.3406,38.767 Z M779.9006,36.695 C783.7286,36.695 786.7266,39.825 786.7266,43.643 C786.7266,47.461 783.7286,50.591 779.9006,50.591 C776.0826,50.591 772.9516,47.461 772.9516,43.643 C772.9516,39.825 776.0826,36.695 779.9006,36.695 L779.9006,36.695 Z M779.9006,35.11 C775.1906,35.11 771.3676,38.932 771.3676,43.643 C771.3676,48.358 775.1906,52.176 779.9006,52.176 C784.6106,52.176 788.4336,48.358 788.4336,43.643 C788.4336,38.932 784.6106,35.11 779.9006,35.11 L779.9006,35.11 Z M464.9166,29.381 L446.5106,107.761 L467.1116,107.761 L481.8616,43.521 L482.1046,43.521 L485.1526,107.761 L506.6066,107.761 L539.7626,43.521 L540.0056,43.521 L524.6476,107.761 L546.7106,107.761 L564.6296,29.381 L528.5476,29.381 L501.9746,82.04 L501.7306,82.04 L500.3896,29.381 L464.9166,29.381 Z M690.6716,23.53 L682.9916,58.758 L682.7476,58.758 C679.4766,52.473 671.8456,47.909 660.8066,47.909 C639.2156,47.909 628.7476,65.769 628.7476,84.966 C628.7466,98.097 638.6896,109.102 652.2736,109.102 C664.4096,109.102 669.6126,104.884 675.1906,98.375 L675.4346,98.375 L673.7276,107.761 L693.8406,107.761 C694.0846,105.406 694.4546,102.466 695.1816,98.984 L712.1256,23.53 L690.6716,23.53 Z M303.8906,23.53 L284.9966,107.761 L307.0596,107.761 L325.9536,23.53 L303.8906,23.53 Z M87.7666,0.003 C54.2286,0.233 25.4096,13.946 8.5326,33.647 C69.8816,20.819 120.1856,25.524 157.6136,31.575 C157.7596,30.517 157.9886,29.493 158.1006,28.528 C158.1306,28.279 158.0916,28.045 158.1006,27.796 L158.1006,27.065 C158.3406,22.355 155.8386,17.869 151.6406,15.728 C129.7066,4.527 107.8886,-0.134 87.7666,0.003 L87.7666,0.003 Z" id="Fill-1" fill="#000000" mask="url(#mask-2)"></path>
        </g>
    </g>
</svg>